<?xml version="1.0" encoding="UTF-8" standalone="no"?>
<!-- Generator: Adobe Illustrator 26.0.3, SVG Export Plug-In . SVG Version: 6.00 Build 0)  -->

<svg
   version="1.1"
   id="svg5"
   inkscape:version="1.2.1 (9c6d41e410, 2022-07-14)"
   sodipodi:docname="Bunny1.svg"
   x="0px"
   y="0px"
   viewBox="0 0 793.7008 1122.5197"
   xml:space="preserve"
   width="210mm"
   height="297mm"
   inkscape:export-filename="Bunny1.png"
   inkscape:export-xdpi="96"
   inkscape:export-ydpi="96"
   xmlns:inkscape="http://www.inkscape.org/namespaces/inkscape"
   xmlns:sodipodi="http://sodipodi.sourceforge.net/DTD/sodipodi-0.dtd"
   xmlns="http://www.w3.org/2000/svg"
   xmlns:svg="http://www.w3.org/2000/svg"><defs
   id="defs48" />
<style
   type="text/css"
   id="style2">
	.st0{display:none;}
	.st1{fill:#F5DBC7;stroke:#AAAAAA;stroke-width:0.7559;stroke-linecap:square;stroke-miterlimit:39.3071;stroke-opacity:0;}
	.st2{fill:#C1C1C1;stroke:#AAAAAA;stroke-width:0.7559;stroke-linecap:square;stroke-miterlimit:39.3071;stroke-opacity:0;}
	.st3{fill:#68564F;stroke:#AAAAAA;stroke-width:0.7559;stroke-linecap:square;stroke-miterlimit:39.3071;stroke-opacity:0;}
	.st4{fill:#EEECEE;stroke:#AAAAAA;stroke-width:0.7559;stroke-linecap:square;stroke-miterlimit:39.3071;stroke-opacity:0;}
	.st5{fill:#4A474C;stroke:#AAAAAA;stroke-width:0.7559;stroke-linecap:square;stroke-miterlimit:39.3071;stroke-opacity:0;}
	.st6{fill:#404047;stroke:#AAAAAA;stroke-width:0.7559;stroke-linecap:square;stroke-miterlimit:39.3071;stroke-opacity:0;}
	
		.st7{opacity:0.1429;stroke:#AAAAAA;stroke-width:0.7559;stroke-linecap:square;stroke-miterlimit:39.3071;stroke-opacity:0;enable-background:new    ;}
	
		.st8{opacity:0.1458;fill:url(#path15063_00000004540313807091245700000011245259185081386625_);stroke:#AAAAAA;stroke-width:0.8144;stroke-linecap:square;stroke-miterlimit:39.3071;stroke-opacity:0;enable-background:new    ;}
	.st9{fill:#F7DCC7;stroke:#AAAAAA;stroke-width:0.7559;stroke-linecap:square;stroke-miterlimit:39.3071;stroke-opacity:0;}
	.st10{fill:#46454E;stroke:#AAAAAA;stroke-width:0.7559;stroke-linecap:square;stroke-miterlimit:39.3071;stroke-opacity:0;}
	
		.st11{opacity:0.2507;stroke:#AAAAAA;stroke-width:0.7559;stroke-linecap:square;stroke-miterlimit:39.3071;stroke-opacity:0;enable-background:new    ;}
	.st12{fill:#65656C;stroke:#AAAAAA;stroke-width:0.7559;stroke-linecap:square;stroke-miterlimit:39.3071;stroke-opacity:0;}
	.st13{fill:#B79D9E;stroke:#AAAAAA;stroke-width:0.7559;stroke-linecap:square;stroke-miterlimit:39.3071;stroke-opacity:0;}
	
		.st14{opacity:0.1866;fill:url(#path14978_00000038410646451607869910000008796519802493370266_);stroke:#AAAAAA;stroke-width:0.7559;stroke-linecap:square;stroke-miterlimit:39.3071;stroke-opacity:0;enable-background:new    ;}
</style>
<sodipodi:namedview
   bordercolor="#eeeeee"
   borderopacity="1"
   id="namedview7"
   inkscape:current-layer="layer1"
   inkscape:cx="366.28124"
   inkscape:cy="463.77054"
   inkscape:deskcolor="#505050"
   inkscape:document-units="mm"
   inkscape:pagecheckerboard="0"
   inkscape:pageopacity="1"
   inkscape:showpageshadow="0"
   inkscape:window-height="969"
   inkscape:window-maximized="0"
   inkscape:window-width="1603"
   inkscape:window-x="9"
   inkscape:window-y="490"
   inkscape:zoom="0.7180275"
   pagecolor="#20b2aa"
   showgrid="false">
	</sodipodi:namedview>

<rect
   style="display:none;opacity:1;fill:#20b2aa;fill-opacity:1;stroke:#000000;stroke-width:0.307015;stroke-linecap:round;stroke-linejoin:bevel;stroke-miterlimit:10.4;paint-order:markers fill stroke"
   id="rect15087"
   width="793.99298"
   height="1121.993"
   x="2.0035076"
   y="2.0035069"
   inkscape:label="Backgroung" /><g
   id="layer3"
   inkscape:groupmode="layer"
   inkscape:highlight-color="#ee973b"
   inkscape:label="Body"
   style="display:inline">
	
		<path
   id="path6067"
   inkscape:label="Skin"
   sodipodi:nodetypes="ccsssssssssssscssssscsssssssssssssssssssssscszsssscssssssscssssssssssssscsssccscc"
   class="st1"
   d="m 383.45719,1121.5219 h -40.8 c 0,0 2.4,-24.5 4.1,-33.4 1.7,-9 2.8,-29.2 8.6,-45.5 5.8,-16.3 14.1,-45.49996 17.1,-63.79996 3,-18.3 8,-98.4 9.1,-114.7 1.1,-16.3 1.1,-43.3 3,-55.9 1.9,-12.6 3.9,-22.2 7.7,-34 3.9,-11.8 6.4,-18.6 8.8,-21.9 2.4,-3.3 5.8,-11.8 15.2,-12.1 9.4,-0.3 21,-0.8 30.1,-2 9.1,-1.1 22.7,-5.3 27.1,-8.2 4.4,-2.8 13.3,-10.1 15.5,-13.5 2.2,-3.4 3.8,-7.8 3.7,-11.4 -0.1,-3 -0.1,-4.8 -0.1,-4.8 0,0 9.7,-3.2 16.9,-6 7.2,-2.8 20.4,-10.3 26.2,-13.4 1.6,-0.8 2.5,-1.6 3.8,-2.4 3.6,-2.4 6.7,-5.2 11.2,-10.9 2.7,-3.5 3.8,-5.7 4.6,-6.9 1,-1.6 1.2,-1.6 1.2,-1.6 0,0 -0.8,8.2 -1.3,14.1 -0.6,5.9 -1.7,11.5 -0.8,19.1 0.5,4.4 1.4,12 2,18 0.5,4.2 0.5,7.7 1.8,8.8 3,2.8 5.5,3.1 14.1,4.2 8.6,1.1 16.4,0.7 26.6,0.2 10.2,-0.5 20.2,-6 31.9,0.5 11.7,6.5 14.9,5 27.6,20.5 12.7,15.5 20.7,27.1 29.8,37 9.1,9.8 23,24.4 38.5,41 15.5,16.6 54.5,58.5 58.6,65.8 4.1,7.3 14.6,20.2 3.3,33.2 -11.3,13 -35.4,37.9 -39.5,42.2 -4.1,4.2 -20.2,18.3 -23.8,21.6 -3.6,3.4 -24.3,20.49996 -30.1,25.89996 -5.8,5.3 -40.6,46.4 -42,48.3 -1.4,1.9 -5.3,1.7 -2.5,8.2 2.8,6.5 8,15.2 7.7,23.9 -0.3,8.7 -1.4,18 -1.1,20.8 0.3,2.8 -1.7,5.3 1.7,7 3.3,1.7 2.2,-0.6 5.3,-5.6 3,-5.1 8.3,-10.4 10,-3.4 1.7,7 -3,11.8 -3,11.8 0,0 -22.2,5.7 -30.4,-0.3 -9,-6.5 -6.8,-20.1 -11.1,-31.8 -4.3,-11.6 -14.9,-25.9 -14.6,-37.9 0.3,-12 -0.3,-9.6 6.4,-16 6.6,-6.5 69.9,-77.89996 76,-87.09996 6.1,-9.3 10.2,-21.4 20.5,-32.3 10.3,-10.9 12.4,-11 12.4,-11 0,0 -3.9,-4.8 -9.7,-12.6 -5.8,-7.8 -14.1,-18.3 -21,-25.6 -6.9,-7.3 -12.2,-12.9 -26.3,-23.6 -14.1,-10.7 -24,-18.8 -35.9,-27.5 -11.9,-8.7 -13.3,-11.2 -17.1,-4.8 -3.9,6.5 -7.2,11.8 -7.2,14.6 0,2.8 1.1,7.9 2.2,16 1.1,8.2 2.6,20.7 2.6,20.7 0,0 -6.7,-15.5 -11.4,-22.6 -4.7,-7 -16.3,-22.8 -21.6,-26.5 -5.3,-3.7 -4.7,-5.1 -17.4,1.7 -12.7,6.7 -19.6,8.7 -42.8,24.2 -23.2,15.5 -22.9,19.4 -29.9,15.2 -6.9,-4.2 -17.4,-9.6 -27.9,-16.6 -10.5,-7 -10.8,-5.1 -26.5,-18 -15.8,-12.9 -15.8,-15.5 -19.7,-10.7 -3.9,4.8 -11.3,15.3 -18.8,26.8 -7.4,11.5 -16.4,26.8 -11.5,42.1 4.9,15.3 3.3,15.7 10.2,28.2 6.8,12.5 10,14.7 15,20.7 5.1,6 5.3,3.4 5.5,8.5 0.2,5.2 2.7,31.6 2.7,31.6 0,0 -1.6,2.2 -4.1,10.9 -2.5,8.7 -7.6,27.99996 -8.4,32.79996 -0.8,4.8 -0.6,17.5 -1,24.4 -0.4,7 -2.5,22.9 -2.5,22.9 l -12.5,32.8 c 0,0 -5.3,16.3 -8.2,23.3 -3.4,6.9 -3.8,6.8 -3.8,6.8 z" />
	<g
   id="g7683"
   inkscape:label="Costume"
   transform="translate(-1126.9428,40.621944)"
   style="display:inline">
		<path
   id="path7685"
   inkscape:label="hand"
   class="st2"
   d="m 1785,951.2 c 0,0 -3.3,-6 -8.8,-0.2 -5.5,5.8 -21.5,24.4 -25.2,28.6 -3.7,4.2 -7.8,8 -3.9,12.7 3.9,4.8 10.2,13.3 17.2,20.3 7,7 5.1,5.8 10.9,8.3 5.8,2.5 6.4,2 8.6,5.4 2.2,3.4 3.7,8 10.7,11.3 7,3.4 6.8,4.4 10.4,1 3.5,-3.4 9.8,-11.3 16.6,-19.5 6.8,-8.1 11.5,-8.9 6.3,-16.3 -5.3,-7.4 -10,-10.7 -10.7,-14.1 -0.8,-3.4 -1.2,-4.8 -1.4,-8.1 -0.2,-3.4 -5.7,-1 -5.7,1 0,2 0.6,3 -3.7,-0.2 -4.3,-3.2 -7.4,-6.4 -13.1,-12.7 -5.7,-6.4 -10.6,-11.1 -10.9,-13.5 -0.4,-2.4 -0.6,-1.8 1,-2.6 1.6,-0.8 1.7,-1.4 1.7,-1.4 z" />
		<g
   id="g12486"
   inkscape:label="foot"
   style="display:inline">
			<path
   id="path12488"
   inkscape:label="left"
   sodipodi:nodetypes="csssccssssc"
   class="st3"
   d="m 1545.4,995.5 c 0,0 2,20.7 3.9,26 2,5.4 6.1,21.3 9,29.2 2.9,8 9,22.9 10.7,26.8 1.7,3.9 1,3.8 1,3.8 l -58.8,-0.4 c 0,0 1.8,-5.6 4.5,-11.9 2.7,-6.3 6.4,-18.3 9.2,-25.4 2.7,-7.2 5.9,-19.1 11.3,-30.4 2.6,-5.5 4.1,-8.7 5.7,-11.7 1.8,-3.2 3.5,-6 3.5,-6 z" />
			<path
   id="path12014"
   inkscape:label="rigth"
   sodipodi:nodetypes="cssssscsssssc"
   class="st3"
   d="m 1736,1015.1 c -1.6,-1.5 -2.6,-3.1 -3.8,-4.2 -6.9,-6.5 -9.3,-8.2 -13.8,-10.2 -5.3,-2.4 -10.4,-10.1 -14.3,1.2 -3.9,11.3 -8,25.6 -11.5,31.4 -3.5,5.8 -18.8,34.6 -21.1,38 -2.3,3.4 -5.9,10.1 -5.9,10.1 0,0 99.9,0.4 100.5,0 0.6,-0.4 0,-1.8 -1.4,-7.4 -1.4,-5.6 -3.7,-14.3 -6.6,-20.3 -2.9,-6 -9.6,-18.9 -11.9,-22.7 -2.3,-3.8 -6.2,-11.2 -8.1,-13.5 -1.9,-2 -2.1,-2.4 -2.1,-2.4 z" />
		</g>
		<path
   id="path8441"
   inkscape:label="path8441"
   class="st4"
   d="m 1681.1,651.4 c 0,0 -10.4,4.8 -14.5,7 -4.1,2.2 -14.1,5.4 -17.4,7.4 -3.3,2 -10.2,6 -12.9,9.1 -2.7,3.1 -1.6,5.6 -4.5,2 -2.9,-3.6 -12.1,-11.7 -12.9,-12.7 -0.8,-1 -2.3,-1.2 -3.5,1.6 -1.2,2.8 -1.8,9.9 -1.8,13.7 0,3.8 -0.2,15.3 0.2,20.9 0.4,5.6 1,10.5 1.4,12.9 0.4,2.4 1,5.2 2.7,2.8 1.8,-2.4 6.4,-9.7 8,-13.1 1.6,-3.4 2.5,-8 3.5,-9.1 1,-1.2 4.5,-5 6.3,-0.8 1.8,4.2 6.1,8.9 7,11.9 0.9,3 3.7,7 5.1,9.9 1.4,3 4.1,11.7 7.4,6 3.3,-5.8 7.8,-13.3 11.3,-17.9 3.5,-4.6 8.6,-11.3 12.7,-17.3 4.1,-6 7,-8.7 6.1,-13.5 -1,-4.8 -2.9,-8.1 -3.3,-14.1 -0.4,-6 -0.9,-6.7 -0.9,-6.7 z" />
		<path
   id="path11612"
   class="st5"
   d="m 1652.5,712.5 c 7.7,1.5 11.7,4.6 11.9,-3.1 0.1,-7.7 1.2,-19 1.2,-25 0,-6 3.6,-15.6 -8.6,-11.4 -12.2,4.2 -16.4,7.3 -17.4,7.9 -1,0.6 -11.3,-0.7 -11.3,-0.7 0,0 -3.6,-4.5 -7,-6.6 -3.4,-2.1 -6.6,-4.4 -8.3,-4.8 -1.7,-0.4 -5.9,-3.4 -6.6,2.4 -0.7,5.8 -1.2,11.1 -1.1,16 0.1,4.9 -0.7,12.9 0,16.4 0.7,3.5 -0.1,8.9 5.8,6.3 5.9,-2.6 13,-6.9 14.4,-7.9 1.4,-1 1.4,-1.5 3.2,-1.7 1.8,-0.1 7.7,0.3 7.7,0.3 0,0 1.9,2.8 5,5.6 3,2.8 4.6,3.8 6.6,4.9 2,1.3 4.5,1.4 4.5,1.4 z" />
		<path
   id="path6887"
   inkscape:label="Body"
   sodipodi:nodetypes="ccssssssccsssssssssssssssssssssssssssssssssc"
   class="st6"
   d="m 1728.4,1001.3 8.5,14.9 c 0,0 -4.4,-5.2 -10.4,-9.9 -6.1,-4.8 -9.2,-5.8 -11.7,-7.2 -2.5,-1.4 -6.1,-5.8 -9.2,1.8 -3.1,7.6 -6.8,19.1 -9.4,24.8 -2.5,5.8 -5.7,12.9 -8.8,18.9 -3.1,6 -3.3,7.8 -11.5,21.7 -8.2,13.9 -9.4,14.7 -9.4,14.7 h -96.7 c 0,0 -8.4,-19.1 -14.4,-37.7 -6,-18.6 -9,-29 -9.7,-40.7 -0.7,-11.7 0.6,-12.8 3.2,-22.1 2.6,-9.2 3.7,-18.7 4.2,-20.9 0.5,-2.2 2.7,-1.2 2.6,-5.6 -0.1,-4.4 -2.1,-13.6 -2.9,-17.7 -0.8,-4.1 -4.2,-24.6 -4.6,-31.6 -0.4,-7 3.1,-8.8 -5.2,-18.1 -8.3,-9.2 -21.6,-27.6 -24.7,-41.1 -3.1,-13.5 -5.5,-23 1.6,-35.5 7,-12.5 18.1,-30.1 24.5,-36.8 1.5355,-1.60744 2.6084,-3.52278 3.5516,-4.50581 2.9883,-3.11436 3.876,-2.46255 7.4484,0.80581 4.8042,4.39537 20.8,17.1 28.4,22 7.6,4.9 20.8,13.3 30.1,18.3 9.3,5 2.6,1.6 6.3,3.5 3.6,1.9 1.9,0.7 3,1.2 1.1,0.5 3.3,1 4.4,0.1 1.1,-0.9 6.1,-2.8 13.8,-8.2 7.7,-5.4 24.2697,-18.21421 37.3697,-24.71421 13.2,-6.5 21.3535,-10.6 24.4535,-11.7 3.1,-1.1 6.482,1.15165 9.482,3.25165 2.9,2.1 11.9948,10.86256 19.3948,23.86256 7.4,13 11.5,22.6 12.6,24.7 1.1,2.2 1.2,9.7 0.3,17.1 -0.9,7.4 -2.4,14.3 -7.7,24.2 -5.3,9.9 -9.9,15.2 -10.5,17.7 -0.6,2.5 -1.1,6.8 -2.7,11.9 -1.7,5.2 -3.3,10.6 -5.6,20.3 -2.2,9.6 -3.2,14.2 -5.6,24.1 -2.3,9.9 -3.6,14.3 -4,16.9 -0.4,2.6 -1.3,2.5 -0.1,6.2 1.2,3.7 5.7,13.8 9.3,22.1 3.6,8.4 10.3,19 10.3,19 z" />
	</g>
	<g
   id="g15060"
   inkscape:label="Shadows"
   transform="translate(-1126.9428,40.621944)"
   style="display:inline">
		<path
   id="path8223"
   inkscape:label="Head Shadow"
   class="st7"
   d="m 1683.9,619.1 c 0,0 -2.5,10.8 -2.6,14.6 -0.1,3.8 -1,15.3 -0.4,18.8 0.6,3.5 0.3,4.2 0.7,9 0.4,4.8 1.7,4.9 -1.9,9.7 -3.6,4.8 -9.7,11.1 -13.3,15.6 -3.6,4.5 -8.7,8.7 -11.5,11.5 -2.8,2.8 -4.1,6.7 -9.8,1.8 -5.7,-4.9 -14.8,-10.4 -18.1,-13.4 -3.3,-3 -9.1,-7.7 -11.5,-10.8 -2.3,-3.1 -4,-6.9 -1.7,-9.7 2.3,-2.8 3.3,-3.4 4.6,-3.9 1.2,-0.6 1.2,-3.4 1.2,-3.4 0,0 3.5,-0.4 10.8,-3.1 7.3,-2.7 19.2,-7.7 24.5,-10.8 5.3,-3.1 12.7,-7.3 15.6,-9.8 2.9,-2.5 7.6,-8.9 9,-10.7 1.4,-1.8 4.4,-5.4 4.4,-5.4 z"
   style="opacity:0.14469453" /><path
   id="path14978"
   inkscape:label="Right Hand Shadow"
   sodipodi:nodetypes="csssssssssssssssscssssscsssssssccccsscsscsscc"
   style="opacity:0.1866;fill:url(#path14978_00000182521242046520266210000013888467306997215131_);stroke:#aaaaaa;stroke-width:0.7559;stroke-linecap:square;stroke-miterlimit:39.3071;stroke-opacity:0;enable-background:new"
   d="m 1853.5,781.8 c 15.5,16.6 54.5,58.5 58.6,65.8 4.1,7.3 14.6,20.2 3.3,33.2 -11.3,12.9 -35.4,37.9 -39.5,42.2 -4.1,4.2 -20.2,18.3 -23.8,21.6 -3.6,3.4 -24.3,20.5 -30.1,25.9 -5.8,5.4 -38.5,45.2 -39.9,47.2 -0.4,0.5 15.8,-25.3 26.7,-32.6 1.6,-1.1 4.7,-7 6,-6.1 0.3,0.2 0.9,0.9 1,1.4 0.6,2.8 1.3,8.8 1.7,9.6 0.2,0.4 1,1.7 2.4,3.3 3.1,3.5 8.4,8.7 10,12.9 0.5,1.5 0.3,3.2 -0.2,4.2 -5.7,11 -24.3,30.1 -26.4,30.8 -2.4,0.7 -9.3,-2.5 -13.7,-6.8 -3.6,-3.5 -5.4,-8.6 -7.1,-10 -2.7,-2.3 -5.8,-1.9 -5.8,-1.9 0,0 8.8,19.8 8.5,28.5 -0.3,8.7 -1.4,18 -1.1,20.8 0.3,2.8 -1.7,5.3 1.7,7 3.3,1.7 2.2,-0.6 5.3,-5.6 3,-5.1 8.3,-10.4 10,-3.4 1.7,7 -3,11.8 -3,11.8 0,0 -22.2,5.7 -30.4,-0.3 -3.3,-2.4 -4.4,-5.7 -5.6,-9.6 -2,-6.6 -2.8,-14.8 -5.5,-22.2 -4.3,-11.6 -14.9,-25.9 -14.6,-37.9 0.1,-3.9 -0.3,-7.4 0.6,-9.8 0.5,-1.3 1.5,-2.2 2.4,-3.1 0.8,-0.7 1.4,-1.5 2.1,-2 1.5,-1.3 2.1,-1.9 2.1,-1.9 l -0.5,-0.6 11.4,-14 15.8,-18.6 c 0,0 4.2,-6.6 5.5,-6.9 0.7,-0.1 1.2,0.5 1.4,1.1 0.2,0.6 0.3,1.1 0.3,1.1 0,0 38,-43.6 41.2,-48.5 6.1,-9.3 10.2,-21.4 20.5,-32.3 10.2,-11 12.4,-11 12.4,-11 0,0 -3.9,-4.8 -9.7,-12.6 -5.8,-7.8 -14.1,-18.3 -21,-25.6 -6.9,-7.3 -12.2,-12.9 -26.3,-23.6 2.1,-2.8 36.4,-38.2 53.3,-21.5 z" />
		
			<linearGradient
   id="path15063_00000078726215422322566310000013049090838814346886_"
   gradientUnits="userSpaceOnUse"
   x1="398.22421"
   y1="793.54883"
   x2="403.21039"
   y2="856.5976"
   gradientTransform="matrix(3.7772,0,0,-4.3893,0.2466,4566.7612)">
			<stop
   offset="0"
   style="stop-color:#000000"
   id="stop17" />
			<stop
   offset="1"
   style="stop-color:#FFEEE2;stop-opacity:0"
   id="stop19" />
		</linearGradient>
		
			<path
   id="path15063"
   inkscape:label="Left Hand Shadow"
   sodipodi:nodetypes="ccsssccssscsssccscc"
   style="opacity:0.1458;fill:url(#path15063_00000078726215422322566310000013049090838814346886_);stroke:#aaaaaa;stroke-width:0.8144;stroke-linecap:square;stroke-miterlimit:39.3071;stroke-opacity:0;enable-background:new"
   d="m 1510.4,1080.9 h -40.8 c 0,0 2.4,-28.4 4.1,-38.8 1.7,-10.4 2.8,-33.9 8.6,-52.9 5.8,-18.9 14.1,-52.9 17.1,-74.1 3,-21.2 8,-84.6 9.1,-103.6 5.2,-2.2 6.5,-8.4 8,-2.2 4.9,17.8 2.4,15.7 -0.5,31.6 -6.2,34.8 8.5,24.1 13.5,31 5.1,6.9 15.8,13.9 16,19.9 0.2,6 4.9,10.3 4.9,10.3 0,0 1.5,14.3 -1.1,24.5 -2.6,10.2 -7.1,21 -7.8,26.6 -0.8,5.5 -4.2,20 -4.6,28.1 -0.4,8.1 -1.7,32.2 -1.7,32.2 l -11.1,32.2 c 0,0 -7.5,19.2 -10.4,27.3 -2.9,7.9 -3.3,7.9 -3.3,7.9 z" />
	</g>
<text
   xml:space="preserve"
   style="font-size:266.667px;opacity:0.387755;fill:#000000;fill-opacity:0.722581;stroke:#aaaaaa;stroke-width:0.755906;stroke-linecap:square;stroke-miterlimit:10.4;stroke-opacity:0"
   x="157.02483"
   y="951.72357"
   id="text331"><tspan
     sodipodi:role="line"
     id="tspan329"
     x="157.02483"
     y="951.72357" /></text></g><g
   inkscape:groupmode="layer"
   id="layer1"
   inkscape:label="Text"
   inkscape:highlight-color="#2aeeff"
   style="display:inline"><text
     xml:space="preserve"
     style="font-style:normal;font-variant:normal;font-weight:normal;font-stretch:normal;font-size:333.333px;font-family:'Gill Sans MT';-inkscape-font-specification:'Gill Sans MT';opacity:0.50352113;fill:#000000;fill-opacity:0.56175297;stroke:#000000;stroke-width:0.3;stroke-linecap:round;stroke-linejoin:bevel;stroke-miterlimit:10.4;paint-order:markers fill stroke;stroke-opacity:0"
     x="-27.081295"
     y="265.3967"
     id="text2428"><tspan
       sodipodi:role="line"
       id="tspan2426"
       x="-27.081295"
       y="265.3967">Bunny</tspan></text><text
     xml:space="preserve"
     style="font-style:normal;font-variant:normal;font-weight:normal;font-stretch:normal;font-size:333.333px;font-family:'Gill Sans MT';-inkscape-font-specification:'Gill Sans MT';opacity:0.506;fill:#000000;fill-opacity:0.55806452;stroke:#000000;stroke-width:0.341275;stroke-linecap:round;stroke-linejoin:bevel;stroke-miterlimit:10.4;paint-order:markers fill stroke"
     x="-17.220766"
     y="576.05518"
     id="text2440"
     transform="scale(1.0087435,0.99133227)"><tspan
       sodipodi:role="line"
       id="tspan2438"
       x="-17.220766"
       y="576.05518"
       style="font-size:333.333px;stroke-width:0.341275;fill:#000000;fill-opacity:0.55806452">Girl</tspan></text><g
     id="g2544"
     inkscape:label="N ears"
     style="display:inline"><path
       id="path2442"
       inkscape:label="Right Ears"
       class="st10"
       d="m 452.12905,121.80832 c -0.6389,-0.50792 0.84755,-2.28517 0.84755,-2.28517 0,0 4.72075,-7.99104 5.75009,-9.85336 1.02934,-1.86232 6.45999,-11.817284 7.02789,-12.833094 0.56792,-1.01581 3.69143,-7.042957 4.22384,-8.93914 0.53242,-1.896184 0.14198,-2.674968 2.30714,-4.706596 2.16516,-2.031618 13.3104,-13.510291 15.2626,-16.185258 1.9522,-2.674968 10.7548,-16.28684 12.95546,-21.704502 2.20065,-5.417662 3.22999,-9.311609 2.73307,-10.293556 -0.49692,-0.948091 -0.99384,-1.32056 -1.95219,-2.031627 -0.99384,-0.711067 -1.3133,-1.083527 -2.44912,-1.38827 -1.13582,-0.270888 -3.72691,-0.846511 -5.28867,-0.948092 -1.56175,-0.101581 -6.17602,-0.440187 -7.80876,-0.270888 -1.63275,0.135444 -4.61428,0.237025 -6.14054,0.575631 -1.52626,0.338606 -2.73307,0.74493 -2.91054,0.948092 -0.14198,0.203162 -0.78088,2.437942 -1.02934,2.844266 -0.24846,0.440187 -2.44911,6.467335 -3.33648,8.431236 -0.88736,1.963901 -1.52626,4.367989 -2.94603,7.313845 -1.41978,2.945856 -3.54944,8.329654 -7.66679,14.187494 -4.11736,5.857849 -5.53714,7.754032 -6.24702,11.986577 -0.6744,4.232554 -0.78089,6.535052 -2.34264,12.223602 -1.56175,5.722406 -3.37197,11.81727 -4.50779,14.55997 -1.13582,2.77655 -3.97538,9.37932 -4.40131,10.36127 -0.53233,0.86312 -2.01442,2.62378 -1.61368,2.79053 0.34209,0.14234 1.10382,0.41286 5.51272,2.77994 1.99388,1.19354 3.98929,2.51527 3.98929,2.51527 z"
       style="display:inline;opacity:0.5;fill:#000000;fill-opacity:0.5737052"
       sodipodi:nodetypes="ccsssssscccscsccsssccccsccc" /><path
       id="path2541"
       inkscape:label="Left Ears"
       class="st10"
       d="m 419.96679,106.4869 c -1.45527,-1.65915 -7.34735,-10.564434 -10.11591,-15.880514 -2.73307,-5.31608 -5.11119,-9.243883 -6.85042,-12.697643 -1.73923,-3.453761 -2.73307,-5.85784 -6.28252,-5.519243 -3.54944,0.338606 -14.87216,2.674976 -20.40928,4.232554 -5.53714,1.557577 -18.84754,5.722404 -25.16555,6.704351 -6.31801,1.015809 -8.76712,1.252834 -11.85513,1.625295 -3.08802,0.372469 -11.28723,2.099345 -7.56032,5.519242 3.72691,3.419904 8.98009,8.194224 11.28723,9.277744 2.30714,1.083544 4.50779,2.674984 8.62514,2.336374 4.11735,-0.33861 14.51722,-2.336374 18.49259,-3.623064 3.97538,-1.28669 14.76569,-5.18064 17.74721,-6.907518 2.98153,-1.726876 3.08801,-2.471806 3.8689,-0.812648 0.78087,1.659159 2.09417,3.656926 3.76241,5.756256 1.66823,2.09935 5.35965,6.128744 7.48932,8.295804 2.16515,2.1332 5.68592,7.01953 8.02855,9.11887 3.3869,-0.38612 5.49495,-1.03748 11.31627,-1.12158 2.45132,-0.0471 3.61376,0.23132 -2.37849,-6.30428 z"
       style="display:inline;opacity:0.5;fill:#000000;fill-opacity:0.55776894"
       sodipodi:nodetypes="ccssscsssssssscccc" /></g></g>
<g
   id="layer2"
   inkscape:groupmode="layer"
   inkscape:label="Head">
	<g
   id="g1445"
   inkscape:label="Face"
   transform="translate(-1126.9428,40.621944)"
   style="display:inline">
		<path
   id="path1513"
   sodipodi:nodetypes="cssssssssccscscscccc"
   class="st9"
   d="m 1571.4,627.6 c 0,0 14,11.2 20,16.8 6.1,5.6 9.1,8.4 12.4,11.5 1.5,1.4 2.8,3.2 5,4.2 2.5,1.1 6.1,1.2 11.1,-0.4 9.4,-3.1 23.5,-7.7 30.6,-11.9 7.2,-4.2 22.9,-13.8 25.2,-16.9 2.3,-3.1 7.7,-12.6 8.6,-13.8 0.8,-1.1 1.7,-2.8 4.4,-2.5 2.8,0.3 6.1,0.6 6.1,0.6 l 6.4,-31.5 c 0,0 -7.5,-54.3 -7.7,-55.7 -0.2,-1.4 -18,-31.5 -18,-31.5 0,0 -56.1,-17.4 -57.5,-17.4 -1.4,0 -56.9,2 -56.9,2 0,0 -21.3,23.6 -22.1,26.4 -0.8,2.8 0.3,45.5 0.3,45.5 l 22.9,56.2 5.2,11.6 z" />
	</g>
	<g
   id="g13446"
   inkscape:label="Ears"
   transform="translate(-1126.9428,40.621944)"
   style="display:inline">
		<path
   id="path12556"
   inkscape:label="Ears"
   class="st10"
   d="m 1713.5,490.3 c -1.8,-9.8 -2.9,-12.6 -5.9,-19.7 -3,-7 -5.1,-12.2 -8.3,-16.9 -3.2,-4.6 -5.5,-8.6 -7.3,-10.1 -1.8,-1.5 -2.5,-2 -2.5,-2 0,0 13.3,-23.6 16.2,-29.1 2.9,-5.5 18.2,-34.9 19.8,-37.9 1.6,-3 10.4,-20.8 11.9,-26.4 1.5,-5.6 0.4,-7.9 6.5,-13.9 6.1,-6 37.5,-39.9 43,-47.8 5.5,-7.9 30.3,-48.1 36.5,-64.1 6.2,-16 9.1,-27.5 7.7,-30.4 -1.4,-2.8 -2.8,-3.9 -5.5,-6 -2.8,-2.1 -3.7,-3.2 -6.9,-4.1 -3.2,-0.8 -10.5,-2.5 -14.9,-2.8 -4.4,-0.3 -17.4,-1.3 -22,-0.8 -4.6,0.4 -13,0.7 -17.3,1.7 -4.3,1 -7.7,2.2 -8.2,2.8 -0.4,0.6 -2.2,7.2 -2.9,8.4 -0.7,1.3 -6.9,19.1 -9.4,24.9 -2.5,5.8 -4.3,12.9 -8.3,21.6 -4,8.7 -10,24.6 -21.6,41.9 -11.6,17.3 -15.6,22.9 -17.6,35.4 -1.9,12.5 -2.2,19.3 -6.6,36.1 -4.4,16.9 -9.5,34.9 -12.7,43 -3.2,8.2 -11.2,27.7 -12.4,30.6 -1.2,3 -1.1,3.2 -1.1,3.2 0,0 -0.6,-1.7 -6.9,-4.2 -6.4,-2.5 -14.6,-4.2 -21,-4.8 -6.4,-0.6 -14.5,-0.7 -19.5,-0.6 -5,0.1 -8.2,1.1 -8.2,1.1 0,0 -7.5,-11.4 -11.6,-16.3 -4.1,-4.9 -20.7,-31.2 -28.5,-46.9 -7.7,-15.7 -14.4,-27.3 -19.3,-37.5 -4.9,-10.2 -7.7,-17.3 -17.7,-16.3 -10,1 -41.9,7.9 -57.5,12.5 -15.6,4.6 -53.1,16.9 -70.9,19.8 -17.8,3 -24.7,3.7 -33.4,4.8 -8.7,1.1 -31.8,6.2 -21.3,16.3 10.5,10.1 25.3,24.2 31.8,27.4 6.5,3.2 12.7,7.9 24.3,6.9 11.6,-1 40.9,-6.9 52.1,-10.7 11.2,-3.8 41.6,-15.3 50,-20.4 8.4,-5.1 8.7,-7.3 10.9,-2.4 2.2,4.9 5.9,10.8 10.6,17 4.7,6.2 15.1,18.1 21.1,24.5 6.1,6.3 15.9,16.4 22.5,22.6 6.6,6.2 7.6,8.6 7.6,8.6 0,0 1.8,1.5 1.1,1.5 -0.7,0 -2.6,0.1 -2.6,0.1 0,0 -0.6,0.4 -1.1,1.1 -0.6,0.7 -2.8,1.5 0.7,2 3.5,0.4 5.7,0.7 8,1.1 2.3,0.4 3.2,2 4,0.1 0.8,-1.8 1.9,-7 4,-7.6 2.1,-0.6 3.9,-2 7.3,0.1 3.4,2.1 3.5,7.9 5.4,3.7 1.9,-4.2 1.7,-7.7 4.3,-8.9 2.6,-1.2 6.9,-2.2 10.9,-1.7 4,0.6 26.3,6.6 35,12.5 8.7,5.9 20.2,13.1 25.2,18.3 5,5.2 9.4,8.7 12.9,13.2 3.5,4.5 3.6,3.1 11.1,14.9 7.5,11.8 8,12.5 8,12.5 z"
   sodipodi:insensitive="true"
   style="display:inline" />
		<path
   id="path13511"
   inkscape:label="Right Shadow"
   class="st11"
   d="m 1814.1233,242.53074 c 0,0 -5.9233,-2.63074 -16.4233,4.96926 -10.5,7.6 -19.1,14.1 -26.8,18.8 -7.7,4.8 -34.6,24.5 -42.6,29.2 -8,4.8 -24.3,12.6 -29,20.8 -4.7,8.2 -5.0845,15.5 -5.3845,18.6 -0.3,3.1 -6.3155,26.7 -9.6155,37.4 -3.3,10.7 -9.4,27.8 -12.4,35.1 -3,7.3 -3.3,8.7 -3.3,8.7 0,0 2.8,-0.6 7.7,1.7 5,2.2 14.4,4.5 18,5.9 3.6,1.4 4.4459,2.46148 4.7459,1.36148 0.3,-1.1 2.1541,-3.56148 7.9541,-14.26148 5.8,-10.7 19.0463,-37.69223 21.5463,-42.79223 1.4009,-2.85778 4.8389,-8.6764 7.1381,-14.38252 1.804,-4.47703 2.5165,-9.01493 3.6156,-11.12525 1.0381,-1.9932 1.3867,-4.37162 3.2006,-6.6793 2.5543,-3.24965 7.0159,-6.69177 11.6994,-11.6207 2.2008,-2.31615 6.1935,-7.81659 10.8223,-13.12637 5.315,-6.09702 12.0378,-12.38147 16.3873,-17.91656 3.4455,-4.38454 4.9276,-6.62382 6.4904,-8.85707 2.5025,-3.57616 4.9648,-7.43685 7.3124,-11.24913 2.6463,-4.29733 5.5191,-8.3536 8.4335,-13.75864 5.5,-10.2 10.4774,-16.76149 10.4774,-16.76149 z"
   sodipodi:nodetypes="csccssssccsssssssssssssc"
   style="display:inline" />
		<path
   id="path14972"
   inkscape:label="Left Shadow"
   class="st11"
   d="m 1605.2,416.3 c 0,0 -8.6,-10.3 -10.7,-14.1 -2.2,-3.8 -11.9,-18.9 -16.4,-26.8 -4.5,-7.9 -11.3,-16.7 -13.9,-19.9 -2.5,-3.2 -7.2,-10.3 -9.6,-12.9 -2.3,-2.6 -4.3,-6.6 -6.4,-8.1 -2.1,-1.6 -2.9,-4.4 -7.4,-0.8 -4.5,3.6 -7.2,8 -10.7,10.9 -3.5,2.9 -7,5.6 -10.2,8 -3.2,2.4 -5.3922,1.91537 -1.7922,6.51537 1.2777,1.67928 2.7652,4.6482 4.9007,7.84839 3.7142,5.56599 8.3601,11.8316 9.8839,13.22847 2.4,2.2 8.2076,10.20777 11.7076,13.40777 3.5,3.2 10.7,11.5 14.9,15.7 4.1,4.2 10.4603,10.49544 14.1,14.1 3.9181,3.88032 5.0181,4.96063 5.6181,5.96063 0.6,1 0.4819,0.0394 4.1819,-1.56063 3.7,-1.6 7.4,-3.2 15,-7 7.4,-3.9 6.8,-4.5 6.8,-4.5 z"
   sodipodi:nodetypes="ccscccssscssscssscc"
   style="display:inline" />
	</g>
	<g
   id="g3161"
   inkscape:label="Hair"
   transform="translate(-1126.9428,40.621944)"
   style="display:inline">
		
			<path
   id="path1516"
   sodipodi:nodetypes="csssssccsscsscssscssssscsssssssscscsssssssssssscsssssscssssscssssscccssssssscscssssssssssscssssssssssssssccscssssccsssscsssssssssccccssssscc"
   class="st12"
   d="m 1603.6,687.3 c 0,0 -1.1,0.9 -3,2 -1.7,1 -4.2,2.3 -6.7,3.2 -2.4,0.9 -4.9,1.5 -6.8,2.1 -3.7,1.2 -7.6,2 -10.4,2.5 -1.9,0.3 -3.5,0.3 -4.1,0.5 -1.6,0.4 -2.8,0.3 -2.8,0.3 l -0.8,13.9 c 0,0 -0.8,6.4 -0.4,14.1 0.4,7.8 0,12.5 0.4,15.7 0.4,3.2 -0.2,4 -0.2,4 0,0 -3.5,-4.4 -5.9,-12.7 -2.3,-8.3 -4.8,-18.7 -5.3,-24.9 -0.5,-6.3 -0.6,-9.1 -0.6,-9.1 0,0 -1.7,0.1 -3.8,0.1 -1.2,0 -2.2,0.1 -3.6,0.3 -3.9,0.6 -8.7,0.1 -11.5,1.4 -2.8,1.3 -5.3,3.8 -5.3,3.8 0,0 1,-6.6 2.1,-9.7 1.1,-3.1 6.4,-23.5 7.5,-26.8 1.1,-3.4 2.8,-6.7 3.9,-16.5 1.1,-9.8 2.8,-22 3.1,-26.2 0.3,-4.2 -0.8,-7.9 -1.4,-14.8 -0.6,-6.9 -1.2,-12.2 -1.2,-12.2 0,0 -1.4,-5.3 -3.3,-9.6 -1.9,-4.3 -2.3,-9 -3.6,-12.2 -1.3,-3.2 -1.5,-2.8 -5.7,-8 -4.2,-5.2 -6.8,-10.8 -7.1,-11.8 -0.3,-1 -5.4,-3.2 -8.8,-9.4 -3.4,-6.3 -6.5,-12.7 -5.6,-19.7 1,-7 2.4,-13.8 7.3,-22.1 4.9,-8.3 17.3,-26.5 18.9,-28.5 1.6,-2 21.3,-28.9 21.3,-28.9 0,0 7.2,-9.1 11.7,-12.8 4.5,-3.7 6.4,-5.4 6.4,-5.4 0,0 19.3,-11.1 29.9,-14 10.7,-2.9 12,-5.1 27.9,-5 15.9,0.1 14.4,-0.2 25.5,2.5 11.1,2.7 28.9,5.5 41.3,14.5 12.4,9 19.1,11.1 27.3,25.9 8.2,14.8 12.4,20.7 14.1,34.3 1.7,13.6 3.7,21.3 1.9,38 -1.8,16.7 -3.3,23.7 -4.1,37.4 -0.8,13.7 -1.9,10.1 0,17.1 1.9,7 4,15.9 7.8,27.2 3.8,11.3 15.1,44 27,64.7 11.9,20.7 20.4,35.6 29.5,51.4 9.1,15.8 9.3,17.1 9.3,17.1 0,0 -3,-1.5 -9.7,-9.8 -6.7,-8.3 -9.1,-13.2 -15.4,-20.5 -6.3,-7.3 -9.4,-13 -20.2,-19.6 -10.7,-6.6 -13.5,-10 -24.5,-10.3 -11,-0.3 -11.4,1.3 -17.8,1.8 -6.4,0.5 -6.6,0.6 -9.5,0.8 -2.8,0.2 -2.1,0.2 -2.1,0.2 0,0 -0.2,2.8 0,7.4 0.2,4.6 0.6,7.6 0.7,13.3 0.1,5.7 0.4,15.7 0,19 -0.4,3.4 -0.8,4.9 -1.5,9.1 -0.7,4.2 -0.7,6 -1.2,8.5 -0.5,2.5 -0.8,3.6 -0.8,3.6 0,0 -1.7,-3 -2.2,-5.8 -0.5,-2.8 -1.5,-7.6 -2.6,-12.4 -1.1,-4.8 -3.1,-10.2 -4.4,-14.2 -1.2,-4 -3.8,-12.8 -5,-17.1 -1.2,-4.3 -2.2,-7.7 -3.3,-10.3 -1.1,-2.6 -1.2,-2.6 -1.2,-2.6 0,0 -1,0.3 -3.4,-0.3 -2.3,-0.6 -6.5,-2.6 -6.5,-2.6 0,0 0.1,-2.2 0.2,-5.1 0.1,-2.9 0.6,-4.3 -0.6,-6.4 -1.2,-2.1 -2,-0.1 -2.6,-6.1 -0.6,-6 -1.4,-9.1 -1.4,-15.5 0,-6.4 0.2,-14.8 1.2,-20.3 1,-5.6 0.4,-7.6 1.8,-8.8 1.4,-1.1 1.5,-2.2 3.1,-2.3 1.6,-0.1 3.7,0 3.7,0 0,0 0.2,-3.8 0.2,-6.7 v -3 c 0,0 -1,1.5 -4.9,4.8 -3.9,3.4 -6.4,6 -9.4,6.9 -3,0.8 -3.4,1.5 -5.2,1.5 -1.8,0.1 -5.2,0.8 -1,-1.2 4.2,-2 6.7,-3.4 9.5,-6.8 2.8,-3.4 8,-9.2 9.3,-16.4 1.2,-7.2 4.1,-12.7 -1.6,-8 -5.7,4.7 -10,7.5 -14.5,8.2 -4.5,0.7 -10.5,2.5 -4.8,-1 5.7,-3.5 10.6,-4.4 15.8,-13.8 5.2,-9.3 7,-12.9 6.4,-25.6 l -0.6,-12.7 c 0,0 -1,0.4 -6.8,1.5 -5.7,1.1 -8,1.8 -13.7,1.6 -5.7,-0.1 -9.6,-0.2 -16.3,-2.7 -6.7,-2.5 -12,-5.3 -20.3,-10.9 -8.3,-5.6 -12.3,-9.2 -14.2,-10.5 -1.9,-1.3 -2.7,-2.4 -2.6,-0.2 0,2.2 1.5,3.7 3.8,7.3 2.3,3.6 1.8,2.9 5.9,8 4.1,5.1 11.4,12 13,13.5 1.6,1.5 2.9,6.5 -3.6,2.3 -6.4,-4.1 -11,-7.9 -15.8,-13.6 -4.7,-5.8 -10.7,-11.9 -13.7,-16.9 -3,-5 -5.6,-9.9 -4.7,-2.4 0.9,7.5 3.8,18.1 7.5,25.8 3.8,7.7 3.8,9 6.3,12.2 5.4,8.8 -9,-1.3 -10.4,-1.6 -6.2,-3.1 -8.7,-5.6 -11.9,-6.9 -3.3,-1.4 -4.8,-2 -13.3,-7.1 -4.3,-4 -7.9,-8.9 -9.7,-16.5 -1.9,-8.1 -1.2,-15.1 -1,-19.6 0.1,-4.5 -0.1,-7.6 -2.1,-4.4 -1.9,3.2 -7,11.8 -8,13.6 -1,1.8 -4.2,6.9 -4.2,6.9 0,0 -0.2,4.3 -0.2,8.4 0,4.1 -0.3,8.2 0.1,9.8 0.4,1.5 1.2,3.9 2.2,5.5 1,1.6 2.5,4 0,2 -2.6,-2 -5.1,-3.8 -6.4,-5.9 -1.3,-2 -3.2,-3.7 -3.3,-0.8 -0.1,2.9 -1.1,6.5 1.2,12.9 2.3,6.4 4.9,12.1 6.7,16.3 1.8,4.2 2.7,5.5 4,10.7 1.3,5.2 2.6,11.8 3.2,15.9 0.6,4.1 1,10.8 1.8,14.3 0.8,3.4 2.2,12.2 10.2,19.6 8,7.4 19.7,17.8 25.5,23 5.8,5.1 8.3,7.7 9.8,8.1 1.6,0.4 4.3,0.8 7.3,0.2 3,-0.6 3.1,-0.6 3.1,-0.6 l 0.1,3.3 v 0.5 c 0,0 -1.6,0.4 -2.4,0.3 -0.8,-0.1 -2.7,1.3 -2.8,2.7 -0.1,1.3 -0.4,1.8 -1.5,1.7 -1.1,-0.1 -4.5,-0.5 -5,-0.1 -0.5,0.4 -1.9,2.7 -2.4,5.5 -0.5,2.8 -0.8,6.3 -0.8,8.2 0,1.9 0,4.9 0,4.9 z"
   style="display:inline" />
		<path
   id="path3163"
   class="st12"
   d="m 1511,766.1 c 0,0 -3,9.6 -9.4,27.8 -6.4,18.3 -16.8,51.7 -20.5,66.4 -3.7,14.7 -11.7,38 -12.3,55.1 -0.6,17.1 0,27.8 5.9,41.3 5.9,13.5 8.6,17.9 11.3,21.3 2.7,3.4 3.5,3.4 3.5,3.4 l 5.7,-20.1 c 0,0 -1.4,-0.8 -1.8,-13.1 -0.4,-12.3 0.8,-29 1.6,-32.2 0.8,-3.2 1.2,-3.4 1.2,-3.4 0,0 1,-1.6 2.5,5.6 1.5,7.2 1.8,7.8 1.8,7.8 l 1.8,-16.5 c 0,0 3.7,-56.6 3.9,-59.4 0.2,-2.8 3.7,-43.1 4.1,-56.6 0.3,-13.7 0.7,-27.4 0.7,-27.4 z"
   style="display:inline" />
		<path
   id="path3166"
   sodipodi:nodetypes="csssssscsscsssc"
   class="st12"
   d="m 1538.9,966.5 c 3.7,-14.4 4.5,-19.7 6,-24.7 1.5,-5.1 2.5,-6.3 3.3,-8.8 0.8,-2.5 2.7,-10.1 4,-2.7 1.4,7.4 2.5,14.6 3.3,18 0.8,3.5 1.4,6.9 -0.4,9.2 -1.9,2.4 -2.2,2.7 -2.2,4.7 0,2 -2.5,13 -2.5,13 0,0 -0.1,2.4 -0.9,4.4 -0.5,1.4 -0.8,2.9 -1.3,3.9 -1.2,2.6 -1.1,3.6 -1.1,3.6 0,0 -0.5,4 -4.8,0.3 -4.3,-3.7 -6.2,1.7 -5.4,-8 0.2,-2.4 0.4,-4.4 0.5,-6.1 0.4,-5 1.5,-6.8 1.5,-6.8 z"
   style="display:inline" />
		<path
   id="path3168"
   sodipodi:nodetypes="cssssccccsscsssscsssssssssssssssccccc"
   class="st12"
   d="m 1708.2,957.8 c 0,0 0.2,1.5 0.9,3.7 0.8,2.6 2.2581,6.46517 3.6581,9.66517 1.2,2.8 3.9419,8.63483 6.6419,14.43483 3.1,6.6 6.6,12.7 7.1,13.6 1,1.8 1,1.9 1,1.9 l 3.5,-0.3 4.1,-5 -1,5.5 c 0,0 1,-0.1 4.7,-0.8 3.7,-0.7 5,-1.7 7.2,-3.9 2.2,-2.2 34.8,-41.1 34.8,-41.1 0,0 1.8,1.3 3.8,-0.2 2.5,-1.8 5.6,-6.9 9.8,-11.5 7.6,-8.4 14.5,-17.4 21.6,-26.8 7,-9.4 10.1,-13.1 10.8,-14.8 0.7,-1.7 -0.3,-15.2 -0.3,-15.2 0,0 2.2,-12.9 -3.2,-32.3 -5.4,-19.4 -8.3,-30.8 -11.5,-37.8 -3.2,-7 -1.2,-6.2 -6.4,-10 -5.1,-3.8 -15.6,-12.7 -22.8,-17.8 -7.2,-5.1 -16.7,-13 -18.9,-14.7 -2.2,-1.7 -6.8,-4.7 -7.9,-5.4 -1.1,-0.7 -5.8,-6.7 -8.4,-1.1 -2.6,5.6 -5.5,11.9 -7.3,14.1 -1.8,2.2 -1.7,3.2 -0.1,7.8 1.5,4.6 1.5,10.3 2.6,16.7 0.5,3.1 0.9,6.3 1.4,10 0.5,3.9 1.1,8.3 0.6,13.9 -1,10.8 -2.2,21.9 -7.7,32 -5.5,10.1 -9,16.2 -10.2,18 -1.2,1.8 -2.1,9.2 -3.2,13.7 -1.1,4.5 -5.9,21.7 -5.9,21.7 l -6.1,27.3 -2.6394,10.22978 -0.7909,3.18183 z"
   style="display:inline" />
	</g>
	<g
   id="g6063"
   inkscape:label="Ðccessory"
   transform="translate(-1126.9428,40.621944)"
   style="display:inline">
		<path
   id="path6060"
   class="st13"
   d="m 1747,516.7 c 0,0 2.3,0.6 3.9,0 1.7,-0.6 4.2,-1.7 4.6,-3.9 0.4,-2.2 0.6,-4 0.6,-6.1 0,-2.1 0.3,-2.8 0.6,-3.6 0.3,-0.8 0.6,-1.4 2.5,-3.1 1.9,-1.7 5,-5.4 6.8,-7 1.9,-1.5 4.5,-3.3 2.7,-6.3 -1.8,-3 -1.8,-3.3 -2.6,-3.9 -0.8,-0.6 -3,-3.4 -4.8,-0.3 -1.8,3.2 -5.1,7.9 -5.1,7.9 l -2.1,3.7 c 0,0 -4.8,2.6 -3.7,-1.8 1.1,-4.4 3,-7.7 3.9,-9.6 1,-1.9 4.7,-6.4 2.4,-8.6 -2.3,-2.2 -6,-3.9 -7.1,-0.9 -1.1,3 -2.4,5.3 -2.9,8.2 -0.5,2.8 -0.2,4.5 -1.3,4.5 -1.1,0 -1.2,0.1 -1.2,0.1 l 1.4,10.3 c 0,0 -1.5,-2.5 -3.9,-4.1 -2.4,-1.5 -4.1,-2.9 -5.6,-3.2 -1.5,-0.3 -4.6,0.8 -2.5,2.8 2.1,2 3.2,2.4 5.2,3.7 2,1.3 1.8,1.3 3.9,2.5 2.1,1.3 2.8,1.4 2.8,1.4 0,0 0.5,1.7 0.5,3 0,1.3 0.5,5.7 0.5,5.7 l 0.1,4.8 c 0,0 -1.8,-2.4 -3.5,-3.4 -1.7,-1.1 -3.5,-2.9 -5.6,-4.1 -2.1,-1.2 -2.3,-1.5 -2.3,-1.5 0,0 -2.3,-1.6 -2.2,0.9 0.1,2.5 -0.1,2.6 2.7,4.4 2.8,1.8 3.9,3.2 6.6,4.4 2.7,1.2 4.7,3.1 4.7,3.1 z" />
		<path
   id="path6058"
   class="st13"
   d="m 1685.3,525.7 c 0,0 -2.2,3.4 -5.1,7.6 -2.9,4.2 -3.3,5.7 -4.1,7.2 -0.8,1.5 -0.6,3.3 1.4,2.9 2,-0.4 3.7,-3.2 5.4,-5.7 1.7,-2.5 1,-2.6 2.6,-4.6 1.7,-2 2.2,-3.7 2.2,-3.7 0,0 0.9,-0.8 -0.3,-2.1 -1.2,-1.3 -2.1,-1.6 -2.1,-1.6 z" />
		<path
   id="path3170"
   class="st13"
   d="m 1677.9,506.9 c 0,0 -5.1,9.3 -6.9,12.3 -1.9,3 -3.5,7.6 -5.6,11 -2.1,3.5 -6.3,9.4 -6.6,10.1 -0.4,0.7 0,2.7 1.6,2.9 1.6,0.2 1.9,1.4 4.4,-2.7 2.5,-4.1 6.4,-10.2 8.4,-13.9 2.1,-3.7 4,-7 5.8,-10.6 1.8,-3.7 2.3,-4.8 1.5,-6.4 -0.9,-1.6 -1.4,-2.4 -1.9,-2.5 -0.6,0 -0.7,-0.2 -0.7,-0.2 z" />
	</g>
</g>
<linearGradient
   id="path14978_00000182521242046520266210000013888467306997215131_"
   gradientUnits="userSpaceOnUse"
   x1="484.81549"
   y1="792.25568"
   x2="484.1264"
   y2="874.06708"
   gradientTransform="matrix(3.7795,0,0,-3.7795,0,4081.8899)">
	<stop
   offset="0.1865"
   style="stop-color:#1D1D1D"
   id="stop41" />
	<stop
   offset="1"
   style="stop-color:#000000;stop-opacity:0"
   id="stop43" />
</linearGradient>

</svg>
